# Blender 4.5.4 LTS
# www.blender.org
mtllib door.mtl
o Cube.007
v -14.000000 -6.690001 51.000000
v -14.000000 46.690002 51.000000
v -12.712443 -4.235365 49.000000
v -12.621118 44.061260 49.000000
v 14.000000 -6.690001 51.000000
v 14.000000 46.690002 51.000000
v 12.643746 -4.104401 49.000000
v 12.426275 43.689804 49.000000
v -12.621118 22.628740 49.000000
v 1.356254 -4.104401 49.000000
v 1.573725 43.689804 49.000000
v 12.426275 23.000195 49.000000
v 1.573725 23.000195 49.000000
v -1.378883 44.061260 49.000000
v 14.000000 46.690002 49.000000
v 12.643746 17.414398 49.000000
v -1.378883 22.628740 49.000000
v 1.573725 43.689804 50.000000
v 12.426275 43.689804 50.000000
v 12.426275 23.000195 50.000000
v 1.573725 23.000195 50.000000
v -14.000000 46.690002 49.000000
v -12.712443 17.545364 49.000000
v 0.000000 46.690002 49.000000
v 1.356254 17.414398 49.000000
v -12.621118 44.061260 50.000000
v -12.621118 22.628740 50.000000
v -1.378883 44.061260 50.000000
v -1.378883 22.628740 50.000000
v 14.000000 20.000000 49.000000
v 14.000000 -6.690001 49.000000
v -1.287557 -4.235365 49.000000
v -1.287557 17.545364 49.000000
v 12.643746 17.414398 50.000000
v 12.643746 -4.104401 50.000000
v 1.356254 -4.104401 50.000000
v 1.356254 17.414398 50.000000
v -14.000000 20.000000 49.000000
v -14.000000 -6.690001 49.000000
v 0.000000 -6.690001 49.000000
v 0.000000 20.000000 49.000000
v -12.712443 17.545364 50.000000
v -12.712443 -4.235365 50.000000
v -1.287557 -4.235365 50.000000
v -1.287557 17.545364 50.000000
vn -1.0000 -0.0000 -0.0000
vn 1.0000 -0.0000 -0.0000
vn -0.0000 -0.0000 1.0000
vn -0.0000 -1.0000 -0.0000
vn -0.0000 1.0000 -0.0000
vn -0.0000 -0.0000 -1.0000
vt 0.375000 0.000000
vt 0.625000 0.000000
vt 0.625000 0.250000
vt 0.500000 0.250000
vt 0.375000 0.250000
vt 0.610949 0.485949
vt 0.514051 0.485949
vt 0.375000 0.500000
vt 0.500000 0.500000
vt 0.625000 0.500000
vt 0.625000 0.750000
vt 0.375000 0.750000
vt 0.625000 1.000000
vt 0.375000 1.000000
vt 0.125000 0.500000
vt 0.250000 0.500000
vt 0.125000 0.750000
vt 0.750000 0.500000
vt 0.875000 0.500000
vt 0.875000 0.750000
vt 0.387109 0.387109
vt 0.487891 0.387109
vt 0.386496 0.363504
vt 0.386496 0.261496
vt 0.612689 0.262311
vt 0.612688 0.362689
vt 0.610949 0.389051
vt 0.625000 0.375000
vt 0.514051 0.389051
vt 0.500000 0.375000
vt 0.512311 0.262311
vt 0.512311 0.362689
vt 0.387109 0.487891
vt 0.487891 0.487891
vt 0.375000 0.375000
vt 0.488504 0.261496
vt 0.488504 0.363504
s 0
f 1/1/1 2/2/1 22/3/1 38/4/1 39/5/1
f 8/6/1 12/7/1 20/7/1 19/6/1
f 31/8/2 30/9/2 15/10/2 6/11/2 5/12/2
f 5/12/3 6/11/3 2/13/3 1/14/3
f 39/15/4 40/16/4 31/8/4 5/12/4 1/17/4
f 15/10/5 24/18/5 22/19/5 2/20/5 6/11/5
f 10/21/2 25/22/2 37/22/2 36/21/2
f 32/23/5 3/24/5 43/24/5 44/23/5
f 4/25/4 14/26/4 28/26/4 26/25/4
f 8/6/6 11/27/6 24/28/6 15/10/6
f 12/7/6 8/6/6 15/10/6 30/9/6
f 13/29/6 12/7/6 30/9/6 41/30/6
f 11/27/6 13/29/6 41/30/6 24/28/6
f 21/29/6 18/27/6 19/6/6 20/7/6
f 12/7/5 13/29/5 21/29/5 20/7/5
f 11/27/4 8/6/4 19/6/4 18/27/4
f 13/29/2 11/27/2 18/27/2 21/29/2
f 4/25/6 9/31/6 38/4/6 22/3/6
f 14/26/6 4/25/6 22/3/6 24/28/6
f 9/31/6 17/32/6 41/30/6 38/4/6
f 17/32/6 14/26/6 24/28/6 41/30/6
f 27/31/6 26/25/6 28/26/6 29/32/6
f 17/32/5 9/31/5 27/31/5 29/32/5
f 9/31/2 4/25/2 26/25/2 27/31/2
f 14/26/1 17/32/1 29/32/1 28/26/1
f 7/33/6 16/34/6 30/9/6 31/8/6
f 10/21/6 7/33/6 31/8/6 40/35/6
f 16/34/6 25/22/6 41/30/6 30/9/6
f 25/22/6 10/21/6 40/35/6 41/30/6
f 36/21/6 37/22/6 34/34/6 35/33/6
f 7/33/5 10/21/5 36/21/5 35/33/5
f 25/22/4 16/34/4 34/34/4 37/22/4
f 16/34/1 7/33/1 35/33/1 34/34/1
f 23/36/6 3/24/6 39/5/6 38/4/6
f 3/24/6 32/23/6 40/35/6 39/5/6
f 33/37/6 23/36/6 38/4/6 41/30/6
f 32/23/6 33/37/6 41/30/6 40/35/6
f 43/24/6 42/36/6 45/37/6 44/23/6
f 23/36/4 33/37/4 45/37/4 42/36/4
f 3/24/2 23/36/2 42/36/2 43/24/2
f 33/37/1 32/23/1 44/23/1 45/37/1