# Blender 4.5.4 LTS
# www.blender.org
mtllib doornob.mtl
o Sphere.001
v -11.000000 21.056000 48.829044
v -11.000000 21.829046 48.056000
v -11.000000 22.112000 47.000000
v -11.000000 21.829046 45.944000
v -11.000000 21.056000 45.170956
v -10.085477 20.528000 48.829044
v -9.416000 20.914522 48.056000
v -9.170954 21.056000 47.000000
v -9.416000 20.914522 45.944000
v -10.085477 20.528000 45.170956
v -10.085477 19.472000 48.829044
v -9.416000 19.085476 48.056000
v -9.170954 18.944000 47.000000
v -9.416000 19.085478 45.944000
v -10.085477 19.472000 45.170956
v -11.000000 18.944000 48.829044
v -11.000000 18.170954 48.056000
v -11.000000 17.888000 47.000000
v -11.000000 18.170954 45.944000
v -11.000000 18.944000 45.170956
v -11.000000 20.000000 49.112000
v -11.914523 19.472000 48.829044
v -12.584001 19.085478 48.056000
v -12.829046 18.944000 47.000000
v -12.584001 19.085478 45.944000
v -11.914523 19.472000 45.170956
v -11.914523 20.528000 48.829044
v -12.584000 20.914524 48.056000
v -12.829045 21.056000 47.000000
v -12.584000 20.914524 45.944000
v -11.914523 20.528000 45.170956
v -11.000000 20.000000 44.888000
vn 0.3780 0.6547 -0.6547
vn 0.4871 0.8436 0.2260
vn 0.1478 0.2560 0.9553
vn 0.1478 0.2560 -0.9553
vn 0.4871 0.8436 -0.2260
vn 0.3780 0.6547 0.6547
vn 0.2956 -0.0000 -0.9553
vn 0.9741 -0.0000 -0.2260
vn 0.7559 -0.0000 0.6547
vn 0.7559 -0.0000 -0.6547
vn 0.9741 -0.0000 0.2260
vn 0.2956 -0.0000 0.9553
vn 0.1478 -0.2560 -0.9553
vn 0.4871 -0.8436 -0.2260
vn 0.3780 -0.6547 0.6547
vn 0.3780 -0.6547 -0.6547
vn 0.4871 -0.8436 0.2260
vn 0.1478 -0.2560 0.9553
vn -0.1478 -0.2560 -0.9553
vn -0.4871 -0.8436 -0.2260
vn -0.3780 -0.6547 0.6547
vn -0.3780 -0.6547 -0.6547
vn -0.4871 -0.8436 0.2260
vn -0.1478 -0.2560 0.9553
vn -0.9741 -0.0000 -0.2260
vn -0.7559 -0.0000 0.6547
vn -0.7559 -0.0000 -0.6547
vn -0.9741 -0.0000 0.2260
vn -0.2956 -0.0000 0.9553
vn -0.2956 -0.0000 -0.9553
vn -0.3780 0.6547 0.6547
vn -0.3780 0.6547 -0.6547
vn -0.4871 0.8436 0.2260
vn -0.1478 0.2560 0.9553
vn -0.1478 0.2560 -0.9553
vn -0.4871 0.8436 -0.2260
vt 0.666667 0.166667
vt 0.666667 0.333333
vt 0.500000 0.333333
vt 0.500000 0.166667
vt 0.666667 0.500000
vt 0.666667 0.666667
vt 0.500000 0.666667
vt 0.500000 0.500000
vt 0.666667 0.833333
vt 0.583333 1.000000
vt 0.500000 0.833333
vt 0.583333 0.000000
vt 0.416667 0.000000
vt 0.333333 0.166667
vt 0.333333 0.500000
vt 0.333333 0.333333
vt 0.333333 0.833333
vt 0.333333 0.666667
vt 0.416667 1.000000
vt 0.250000 0.000000
vt 0.166667 0.166667
vt 0.166667 0.500000
vt 0.166667 0.333333
vt 0.166667 0.833333
vt 0.166667 0.666667
vt 0.250000 1.000000
vt 0.083333 0.000000
vt 0.000000 0.166667
vt 0.000000 0.500000
vt 0.000000 0.333333
vt 0.000000 0.833333
vt 0.000000 0.666667
vt 0.083333 1.000000
vt 1.000000 0.333333
vt 1.000000 0.500000
vt 0.833333 0.500000
vt 0.833333 0.333333
vt 1.000000 0.666667
vt 1.000000 0.833333
vt 0.833333 0.833333
vt 0.833333 0.666667
vt 1.000000 0.166667
vt 0.833333 0.166667
vt 0.916667 1.000000
vt 0.916667 0.000000
vt 0.750000 1.000000
vt 0.750000 0.000000
s 0
f 5/1/1 4/2/1 9/3/1 10/4/1
f 3/5/2 2/6/2 7/7/2 8/8/2
f 1/9/3 21/10/3 6/11/3
f 32/12/4 5/1/4 10/4/4
f 4/2/5 3/5/5 8/8/5 9/3/5
f 2/6/6 1/9/6 6/11/6 7/7/6
f 32/13/7 10/4/7 15/14/7
f 9/3/8 8/8/8 13/15/8 14/16/8
f 7/7/9 6/11/9 11/17/9 12/18/9
f 10/4/10 9/3/10 14/16/10 15/14/10
f 8/8/11 7/7/11 12/18/11 13/15/11
f 6/11/12 21/19/12 11/17/12
f 32/20/13 15/14/13 20/21/13
f 14/16/14 13/15/14 18/22/14 19/23/14
f 12/18/15 11/17/15 16/24/15 17/25/15
f 15/14/16 14/16/16 19/23/16 20/21/16
f 13/15/17 12/18/17 17/25/17 18/22/17
f 11/17/18 21/26/18 16/24/18
f 32/27/19 20/21/19 26/28/19
f 19/23/20 18/22/20 24/29/20 25/30/20
f 17/25/21 16/24/21 22/31/21 23/32/21
f 20/21/22 19/23/22 25/30/22 26/28/22
f 18/22/23 17/25/23 23/32/23 24/29/23
f 16/24/24 21/33/24 22/31/24
f 25/34/25 24/35/25 29/36/25 30/37/25
f 23/38/26 22/39/26 27/40/26 28/41/26
f 26/42/27 25/34/27 30/37/27 31/43/27
f 24/35/28 23/38/28 28/41/28 29/36/28
f 22/39/29 21/44/29 27/40/29
f 32/45/30 26/42/30 31/43/30
f 28/41/31 27/40/31 1/9/31 2/6/31
f 31/43/32 30/37/32 4/2/32 5/1/32
f 29/36/33 28/41/33 2/6/33 3/5/33
f 27/40/34 21/46/34 1/9/34
f 32/47/35 31/43/35 5/1/35
f 30/37/36 29/36/36 3/5/36 4/2/36