# Blender 4.5.4 LTS
# www.blender.org
mtllib pot.mtl
o Cylinder.011
v 28.000000 -5.830000 -40.049999
v 28.000000 0.830000 -37.976959
v 32.806442 -5.830000 -37.275002
v 31.011137 0.830000 -36.238480
v 32.806442 -5.830000 -31.725000
v 31.011137 0.830000 -32.761520
v 28.000000 -5.830000 -28.950001
v 28.000000 0.830000 -31.023039
v 23.193558 -5.830000 -31.725000
v 24.988863 0.830000 -32.761520
v 23.193558 -5.830000 -37.275002
v 24.988863 0.830000 -36.238480
v 28.000000 -4.165000 -38.496002
v 28.000000 -2.500000 -40.049999
v 28.000000 -0.835000 -39.494999
v 32.325798 -0.835000 -36.997501
v 32.806442 -2.500000 -37.275002
v 31.460638 -4.165000 -36.498001
v 32.325798 -0.835000 -32.002499
v 32.806442 -2.500000 -31.725000
v 31.460638 -4.165000 -32.501999
v 28.000000 -0.835000 -29.504999
v 28.000000 -2.500000 -28.950001
v 28.000000 -4.165000 -30.504000
v 23.674202 -0.835000 -32.002499
v 23.193558 -2.500000 -31.725000
v 24.539362 -4.165000 -32.501999
v 23.674202 -0.835000 -36.997501
v 23.193558 -2.500000 -37.275002
v 24.539362 -4.165000 -36.498001
v 32.806442 0.830000 -37.275002
v 28.000000 0.830000 -40.049999
v 32.806442 0.830000 -31.725000
v 28.000000 0.830000 -28.950001
v 23.193558 0.830000 -31.725000
v 23.193558 0.830000 -37.275002
v 30.107796 -0.670000 -35.716938
v 28.000000 -0.670000 -36.933872
v 30.107796 -0.670000 -33.283062
v 28.000000 -0.670000 -32.066128
v 25.892204 -0.670000 -33.283062
v 25.892204 -0.670000 -35.716938
vn 0.4804 -0.2773 -0.8321
vn 0.9608 -0.2774 -0.0000
vn 0.4804 -0.2774 0.8321
vn -0.4804 -0.2773 0.8321
vn 0.8567 0.5159 -0.0000
vn -0.9608 -0.2774 -0.0000
vn -0.4804 -0.2773 -0.8321
vn -0.0000 -1.0000 -0.0000
vn -0.3889 0.6286 -0.6735
vn -0.3889 -0.6286 -0.6735
vn -0.4804 0.2773 -0.8321
vn -0.7777 0.6286 -0.0000
vn -0.7777 -0.6286 -0.0000
vn -0.9608 0.2773 -0.0000
vn -0.3889 0.6286 0.6735
vn -0.3889 -0.6286 0.6735
vn -0.4804 0.2773 0.8321
vn 0.3889 0.6286 0.6735
vn 0.3889 -0.6286 0.6735
vn 0.4804 0.2773 0.8321
vn 0.7777 0.6286 -0.0000
vn 0.7777 -0.6286 -0.0000
vn 0.9608 0.2773 -0.0000
vn 0.3889 0.6286 -0.6735
vn 0.3889 -0.6286 -0.6735
vn 0.4804 0.2773 -0.8321
vn -0.0000 1.0000 -0.0000
vn -0.4283 0.5159 -0.7419
vn -0.4283 0.5159 0.7419
vn 0.4283 0.5159 0.7419
vn 0.4283 0.5159 -0.7419
vn -0.8566 0.5159 -0.0000
vt 1.000000 0.875000
vt 1.000000 1.000000
vt 0.833333 1.000000
vt 0.833333 0.875000
vt 0.666667 1.000000
vt 0.666667 0.875000
vt 0.500000 1.000000
vt 0.500000 0.875000
vt 0.333333 1.000000
vt 0.333333 0.875000
vt 0.119789 0.325178
vt 0.119789 0.174822
vt 0.166667 1.000000
vt 0.166667 0.875000
vt -0.000000 1.000000
vt -0.000000 0.875000
vt 0.750000 0.490000
vt 0.957846 0.370000
vt 0.957846 0.130000
vt 0.750000 0.010000
vt 0.542154 0.130000
vt 0.542154 0.370000
vt 0.166667 0.500000
vt 0.166667 0.625000
vt -0.000000 0.625000
vt -0.000000 0.500000
vt 0.166667 0.750000
vt -0.000000 0.750000
vt 0.333333 0.500000
vt 0.333333 0.625000
vt 0.333333 0.750000
vt 0.500000 0.500000
vt 0.500000 0.625000
vt 0.500000 0.750000
vt 0.666667 0.500000
vt 0.666667 0.625000
vt 0.666667 0.750000
vt 0.833333 0.500000
vt 0.833333 0.625000
vt 0.833333 0.750000
vt 1.000000 0.500000
vt 1.000000 0.625000
vt 1.000000 0.750000
vt 0.250000 0.400355
vt 0.380211 0.325178
vt 0.457846 0.370000
vt 0.250000 0.490000
vt 0.380211 0.174822
vt 0.457846 0.130000
vt 0.250000 0.099645
vt 0.250000 0.010000
vt 0.042154 0.130000
vt 0.042154 0.370000
s 0
f 15/1/1 32/2/1 31/3/1 16/4/1
f 16/4/2 31/3/2 33/5/2 19/6/2
f 19/6/3 33/5/3 34/7/3 22/8/3
f 22/8/4 34/7/4 35/9/4 25/10/4
f 12/11/5 10/12/5 41/12/5 42/11/5
f 25/10/6 35/9/6 36/13/6 28/14/6
f 28/14/7 36/13/7 32/15/7 15/16/7
f 1/17/8 3/18/8 5/19/8 7/20/8 9/21/8 11/22/8
f 11/23/9 30/24/9 13/25/9 1/26/9
f 30/24/10 29/27/10 14/28/10 13/25/10
f 29/27/11 28/14/11 15/16/11 14/28/11
f 9/29/12 27/30/12 30/24/12 11/23/12
f 27/30/13 26/31/13 29/27/13 30/24/13
f 26/31/14 25/10/14 28/14/14 29/27/14
f 7/32/15 24/33/15 27/30/15 9/29/15
f 24/33/16 23/34/16 26/31/16 27/30/16
f 23/34/17 22/8/17 25/10/17 26/31/17
f 5/35/18 21/36/18 24/33/18 7/32/18
f 21/36/19 20/37/19 23/34/19 24/33/19
f 20/37/20 19/6/20 22/8/20 23/34/20
f 3/38/21 18/39/21 21/36/21 5/35/21
f 18/39/22 17/40/22 20/37/22 21/36/22
f 17/40/23 16/4/23 19/6/23 20/37/23
f 1/41/24 13/42/24 18/39/24 3/38/24
f 13/42/25 14/43/25 17/40/25 18/39/25
f 14/43/26 15/1/26 16/4/26 17/40/26
f 2/44/27 4/45/27 31/46/27 32/47/27
f 4/45/27 6/48/27 33/49/27 31/46/27
f 6/48/27 8/50/27 34/51/27 33/49/27
f 8/50/27 10/12/27 35/52/27 34/51/27
f 10/12/27 12/11/27 36/53/27 35/52/27
f 12/11/27 2/44/27 32/47/27 36/53/27
f 37/45/27 38/44/27 42/11/27 41/12/27 40/50/27 39/48/27
f 8/50/28 6/48/28 39/48/28 40/50/28
f 4/45/29 2/44/29 38/44/29 37/45/29
f 2/44/30 12/11/30 42/11/30 38/44/30
f 10/12/31 8/50/31 40/50/31 41/12/31
f 6/48/32 4/45/32 37/45/32 39/48/32