# Blender 5.0.0
# www.blender.org
mtllib room.mtl
o Plane.001
v -50.600002 -6.000000 50.600002
v 50.600002 -6.000000 50.600002
v -50.600002 -6.000000 -50.600002
v 50.600002 -6.000000 -50.600002
v -50.600002 62.000000 50.600002
v 50.600002 62.000000 50.600002
v 50.600002 62.000000 -50.600002
v -50.600002 60.999992 -50.600002
v 0.000000 76.749992 0.000000
vn -0.0000 1.0000 -0.0000
vn -1.0000 -0.0000 -0.0000
vn -0.0000 -0.0000 -1.0000
vn -0.0000 -0.0000 1.0000
vn 1.0000 -0.0000 -0.0000
vn 0.0095 -0.9574 0.2885
vn -0.2799 -0.9600 -0.0000
vn -0.0000 -0.9600 -0.2799
vn 0.2885 -0.9574 0.0095
vt 0.000000 0.000000
vt 1.000000 0.000000
vt 1.000000 1.000000
vt 0.000000 1.000000
s 0
f 1/1/1 2/2/1 4/3/1 3/4/1
f 4/3/2 2/2/2 6/2/2 7/3/2
f 2/2/3 1/1/3 5/1/3 6/2/3
f 3/4/4 4/3/4 8/1/4
f 4/3/4 7/3/4 8/1/4
f 1/1/5 3/4/5 8/1/5
f 5/1/5 1/1/5 8/1/5
f 8/1/6 7/3/6 9/1/6
f 7/3/7 6/2/7 9/3/7
f 6/2/8 5/1/8 9/2/8
f 5/1/9 8/1/9 9/1/9