# Blender 4.5.4 LTS
# www.blender.org
mtllib table.mtl
o Cube.006
v -10.000000 -5.000000 10.000000
v -10.000000 -3.000000 10.000000
v -10.000000 -5.000000 -10.000000
v -10.000000 -3.000000 -10.000000
v 10.000000 -5.000000 10.000000
v 10.000000 -3.000000 10.000000
v 10.000000 -5.000000 -10.000000
v 10.000000 -3.000000 -10.000000
v -9.100002 -5.000000 -3.033334
v -9.100002 -5.000000 3.033334
v 3.033334 -5.000000 -9.100002
v -3.033334 -5.000000 -9.100002
v 9.100002 -5.000000 3.033334
v 9.100002 -5.000000 -3.033334
v -3.033334 -5.000000 9.100002
v 3.033334 -5.000000 9.100002
v -3.033334 -5.000000 -3.033334
v -3.033334 -5.000000 3.033334
v 3.033334 -5.000000 -3.033334
v 3.033334 -5.000000 3.033334
v -8.000000 -18.000000 5.333333
v -8.000000 -18.000000 8.000000
v -5.333333 -18.000000 -8.000000
v -8.000000 -18.000000 -8.000000
v 8.000000 -18.000000 -5.333333
v 8.000000 -18.000000 -8.000000
v 5.333333 -18.000000 8.000000
v 8.000000 -18.000000 8.000000
v -8.000000 -18.000000 -5.333333
v 5.333333 -18.000000 -8.000000
v 8.000000 -18.000000 5.333333
v -5.333333 -18.000000 8.000000
v -5.333333 -18.000000 5.333333
v -5.333333 -18.000000 -5.333333
v 5.333333 -18.000000 5.333333
v 5.333333 -18.000000 -5.333333
vn -0.9596 -0.2814 -0.0000
vn -0.0000 -0.2814 -0.9596
vn 0.9596 -0.2814 -0.0000
vn -0.0000 -0.2814 0.9596
vn -0.9886 -0.1189 0.0924
vn -0.0000 1.0000 -0.0000
vn 0.0924 -0.1189 -0.9886
vn -0.0000 -1.0000 -0.0000
vn -0.0000 -0.1742 0.9847
vn 0.0924 -0.1189 0.9886
vn -0.0000 -0.1742 -0.9847
vn 0.9847 -0.1742 -0.0000
vn -0.0924 -0.1189 -0.9886
vn 0.9886 -0.1189 0.0924
vn -0.9886 -0.1189 -0.0924
vn -0.9847 -0.1742 -0.0000
vn 0.9886 -0.1189 -0.0924
vn -0.0924 -0.1189 0.9886
vt 0.375000 0.000000
vt 0.625000 0.000000
vt 0.625000 0.250000
vt 0.375000 0.250000
vt 0.375000 0.166667
vt 0.375000 0.083333
vt 0.625000 0.500000
vt 0.375000 0.500000
vt 0.375000 0.416667
vt 0.375000 0.333333
vt 0.625000 0.750000
vt 0.375000 0.750000
vt 0.375000 0.666667
vt 0.375000 0.583333
vt 0.625000 1.000000
vt 0.375000 1.000000
vt 0.375000 0.916667
vt 0.375000 0.833333
vt 0.875000 0.500000
vt 0.875000 0.750000
vt 0.208333 0.666667
vt 0.291667 0.666667
vt 0.291667 0.750000
vt 0.208333 0.750000
vt 0.208333 0.583333
vt 0.125000 0.583333
vt 0.125000 0.666667
vt 0.208333 0.500000
vt 0.291667 0.500000
vt 0.291667 0.583333
vt 0.125000 0.750000
vt 0.125000 0.500000
s 0
f 1/1/1 2/2/1 4/3/1 3/4/1 9/5/1 10/6/1
f 3/4/2 4/3/2 8/7/2 7/8/2 11/9/2 12/10/2
f 7/8/3 8/7/3 6/11/3 5/12/3 13/13/3 14/14/3
f 5/12/4 6/11/4 2/15/4 1/16/4 15/17/4 16/18/4
f 9/5/5 3/4/5 24/4/5 29/5/5
f 8/7/6 4/19/6 2/20/6 6/11/6
f 3/4/7 12/10/7 23/10/7 24/4/7
f 18/21/8 20/22/8 16/23/8 15/24/8
f 17/25/9 9/26/9 29/26/9 34/25/9
f 9/26/8 17/25/8 18/21/8 10/27/8
f 12/28/8 11/29/8 19/30/8 17/25/8
f 17/25/8 19/30/8 20/22/8 18/21/8
f 15/17/10 1/16/10 22/16/10 32/17/10
f 19/30/8 14/14/8 13/13/8 20/22/8
f 35/22/8 31/13/8 28/12/8 27/23/8
f 21/27/8 33/21/8 32/24/8 22/31/8
f 24/32/8 23/28/8 34/25/8 29/26/8
f 30/29/8 26/8/8 25/14/8 36/30/8
f 10/27/11 18/21/11 33/21/11 21/27/11
f 18/21/12 15/24/12 32/24/12 33/21/12
f 12/28/12 17/25/12 34/25/12 23/28/12
f 11/9/13 7/8/13 26/8/13 30/9/13
f 7/8/14 14/14/14 25/14/14 26/8/14
f 1/1/15 10/6/15 21/6/15 22/1/15
f 14/14/9 19/30/9 36/30/9 25/14/9
f 16/23/16 20/22/16 35/22/16 27/23/16
f 13/13/17 5/12/17 28/12/17 31/13/17
f 20/22/11 13/13/11 31/13/11 35/22/11
f 19/30/16 11/29/16 30/29/16 36/30/16
f 5/12/18 16/18/18 27/18/18 28/12/18