# Blender 4.5.4 LTS
# www.blender.org
mtllib window.mtl
o Cube.005
v -51.000000 18.000000 11.900001
v -51.000000 20.000000 11.900001
v -51.000000 18.000000 -11.900001
v -51.000000 20.000000 -11.900001
v -49.000000 18.000000 11.900001
v -49.000000 20.000000 11.900001
v -49.000000 18.000000 -11.900001
v -49.000000 20.000000 -11.900001
v -51.000000 18.000000 -9.916667
v -51.000000 18.000000 -7.933333
v -51.000000 18.000000 -5.950000
v -51.000000 18.000000 -3.966666
v -51.000000 18.000000 -1.983333
v -51.000000 18.000000 0.000001
v -51.000000 18.000000 1.983334
v -51.000000 18.000000 3.966667
v -51.000000 18.000000 5.950000
v -51.000000 18.000000 7.933334
v -51.000000 18.000000 9.916668
v -51.000000 20.000000 9.916667
v -51.000000 20.000000 7.933333
v -51.000000 20.000000 5.950000
v -51.000000 20.000000 3.966666
v -51.000000 20.000000 1.983333
v -51.000000 20.000000 -0.000001
v -51.000000 20.000000 -1.983334
v -51.000000 20.000000 -3.966667
v -51.000000 20.000000 -5.950000
v -51.000000 20.000000 -7.933334
v -51.000000 20.000000 -9.916668
v -49.000000 18.000000 9.916667
v -49.000000 18.000000 7.933333
v -49.000000 18.000000 5.950000
v -49.000000 18.000000 3.966666
v -49.000000 18.000000 1.983333
v -49.000000 18.000000 -0.000001
v -49.000000 18.000000 -1.983334
v -49.000000 18.000000 -3.966667
v -49.000000 18.000000 -5.950000
v -49.000000 18.000000 -7.933334
v -49.000000 18.000000 -9.916668
v -49.000000 20.000000 -9.916667
v -49.000000 20.000000 -7.933333
v -49.000000 20.000000 -5.950000
v -49.000000 20.000000 -3.966666
v -49.000000 20.000000 -1.983333
v -49.000000 20.000000 0.000001
v -49.000000 20.000000 1.983334
v -49.000000 20.000000 3.966667
v -49.000000 20.000000 5.950000
v -49.000000 20.000000 7.933334
v -49.000000 20.000000 9.916668
v -51.000000 43.000000 9.916667
v -51.000000 43.000000 7.933333
v -51.000000 43.000000 -7.933334
v -51.000000 43.000000 -9.916668
v -49.000000 43.000000 -9.916667
v -49.000000 43.000000 -7.933333
v -49.000000 43.000000 7.933334
v -49.000000 43.000000 9.916668
v -50.799999 45.560970 7.700972
v -50.799999 44.439026 6.579029
v -50.799999 44.439030 -6.579030
v -50.799999 45.560970 -7.700973
v -49.200001 45.560970 -7.700972
v -49.200001 44.439026 -6.579029
v -49.200001 44.439030 6.579030
v -49.200001 45.560970 7.700973
v -50.799999 48.560970 -0.000000
v -50.799999 47.439030 -0.000000
v -49.200001 48.560970 0.000000
v -49.200001 47.439030 0.000000
vn -1.0000 -0.0000 -0.0000
vn -0.0000 -0.0000 -1.0000
vn 1.0000 -0.0000 -0.0000
vn -0.0000 -0.0000 1.0000
vn -0.0000 -1.0000 -0.0000
vn -0.0000 1.0000 -0.0000
vn -0.0000 -0.6853 -0.7282
vn -0.9968 0.0754 0.0272
vn -0.0000 -0.9099 0.4149
vn -0.0000 0.9318 0.3630
vn -0.0000 0.6543 -0.7562
vn 0.9968 0.0754 0.0272
vn -0.9968 0.0754 -0.0272
vn -0.0000 0.6543 0.7562
vn -0.0000 -0.6853 0.7282
vn 0.9968 0.0754 -0.0272
vn -0.0000 -0.9099 -0.4149
vn -0.0000 0.9318 -0.3630
vt 0.375000 0.229167
vt 0.625000 0.229167
vt 0.625000 0.250000
vt 0.375000 0.250000
vt 0.625000 0.500000
vt 0.375000 0.500000
vt 0.375000 0.729167
vt 0.625000 0.729167
vt 0.625000 0.750000
vt 0.375000 0.750000
vt 0.625000 1.000000
vt 0.375000 1.000000
vt 0.125000 0.729167
vt 0.125000 0.750000
vt 0.875000 0.729167
vt 0.875000 0.750000
vt 0.875000 0.500000
vt 0.875000 0.520833
vt 0.625000 0.520833
vt 0.625000 0.041667
vt 0.625000 0.020833
vt 0.625000 0.541667
vt 0.875000 0.541667
vt 0.875000 0.562500
vt 0.625000 0.562500
vt 0.875000 0.583333
vt 0.625000 0.583333
vt 0.875000 0.604167
vt 0.625000 0.604167
vt 0.875000 0.625000
vt 0.625000 0.625000
vt 0.875000 0.645833
vt 0.625000 0.645833
vt 0.875000 0.666667
vt 0.625000 0.666667
vt 0.875000 0.687500
vt 0.625000 0.687500
vt 0.875000 0.708333
vt 0.625000 0.708333
vt 0.125000 0.500000
vt 0.375000 0.520833
vt 0.125000 0.520833
vt 0.375000 0.541667
vt 0.125000 0.541667
vt 0.375000 0.562500
vt 0.125000 0.562500
vt 0.375000 0.583333
vt 0.125000 0.583333
vt 0.375000 0.604167
vt 0.125000 0.604167
vt 0.375000 0.625000
vt 0.125000 0.625000
vt 0.375000 0.645833
vt 0.125000 0.645833
vt 0.375000 0.666667
vt 0.125000 0.666667
vt 0.375000 0.687500
vt 0.125000 0.687500
vt 0.375000 0.708333
vt 0.125000 0.708333
vt 0.375000 0.000000
vt 0.625000 0.000000
vt 0.375000 0.020833
vt 0.375000 0.041667
vt 0.625000 0.062500
vt 0.375000 0.062500
vt 0.625000 0.083333
vt 0.375000 0.083333
vt 0.625000 0.104167
vt 0.375000 0.104167
vt 0.625000 0.125000
vt 0.375000 0.125000
vt 0.625000 0.145833
vt 0.375000 0.145833
vt 0.625000 0.166667
vt 0.375000 0.166667
vt 0.625000 0.187500
vt 0.375000 0.187500
vt 0.625000 0.208333
vt 0.375000 0.208333
s 0
f 9/1/1 30/2/1 4/3/1 3/4/1
f 3/4/2 4/3/2 8/5/2 7/6/2
f 31/7/3 52/8/3 6/9/3 5/10/3
f 5/10/4 6/9/4 2/11/4 1/12/4
f 19/13/5 31/7/5 5/10/5 1/14/5
f 52/8/6 20/15/6 2/16/6 6/9/6
f 8/5/6 4/17/6 30/18/6 42/19/6
f 21/20/1 20/21/1 53/21/1 54/20/1
f 43/22/6 29/23/6 28/24/6 44/25/6
f 44/25/6 28/24/6 27/26/6 45/27/6
f 45/27/6 27/26/6 26/28/6 46/29/6
f 46/29/6 26/28/6 25/30/6 47/31/6
f 47/31/6 25/30/6 24/32/6 48/33/6
f 48/33/6 24/32/6 23/34/6 49/35/6
f 49/35/6 23/34/6 22/36/6 50/37/6
f 50/37/6 22/36/6 21/38/6 51/39/6
f 29/23/4 43/22/4 58/22/4 55/23/4
f 3/40/5 7/6/5 41/41/5 9/42/5
f 9/42/5 41/41/5 40/43/5 10/44/5
f 10/44/5 40/43/5 39/45/5 11/46/5
f 11/46/5 39/45/5 38/47/5 12/48/5
f 12/48/5 38/47/5 37/49/5 13/50/5
f 13/50/5 37/49/5 36/51/5 14/52/5
f 14/52/5 36/51/5 35/53/5 15/54/5
f 15/54/5 35/53/5 34/55/5 16/56/5
f 16/56/5 34/55/5 33/57/5 17/58/5
f 17/58/5 33/57/5 32/59/5 18/60/5
f 18/60/5 32/59/5 31/7/5 19/13/5
f 7/6/3 8/5/3 42/19/3 41/41/3
f 41/41/3 42/19/3 43/22/3 40/43/3
f 40/43/3 43/22/3 44/25/3 39/45/3
f 39/45/3 44/25/3 45/27/3 38/47/3
f 38/47/3 45/27/3 46/29/3 37/49/3
f 37/49/3 46/29/3 47/31/3 36/51/3
f 36/51/3 47/31/3 48/33/3 35/53/3
f 35/53/3 48/33/3 49/35/3 34/55/3
f 34/55/3 49/35/3 50/37/3 33/57/3
f 33/57/3 50/37/3 51/39/3 32/59/3
f 32/59/3 51/39/3 52/8/3 31/7/3
f 1/61/1 2/62/1 20/21/1 19/63/1
f 19/63/1 20/21/1 21/20/1 18/64/1
f 18/64/1 21/20/1 22/65/1 17/66/1
f 17/66/1 22/65/1 23/67/1 16/68/1
f 16/68/1 23/67/1 24/69/1 15/70/1
f 15/70/1 24/69/1 25/71/1 14/72/1
f 14/72/1 25/71/1 26/73/1 13/74/1
f 13/74/1 26/73/1 27/75/1 12/76/1
f 12/76/1 27/75/1 28/77/1 11/78/1
f 11/78/1 28/77/1 29/79/1 10/80/1
f 10/80/1 29/79/1 30/2/1 9/1/1
f 59/39/7 54/38/7 62/38/7 67/39/7
f 56/2/8 55/79/8 63/79/8 64/2/8
f 43/22/3 42/19/3 57/19/3 58/22/3
f 20/15/4 52/8/4 60/8/4 53/15/4
f 30/2/1 29/79/1 55/79/1 56/2/1
f 52/8/3 51/39/3 59/39/3 60/8/3
f 42/19/2 30/18/2 56/18/2 57/19/2
f 51/39/2 21/38/2 54/38/2 59/39/2
f 63/23/9 66/22/9 72/22/9 70/23/9
f 61/15/10 68/8/10 71/8/10 69/15/10
f 57/19/11 56/18/11 64/18/11 65/19/11
f 58/22/12 57/19/12 65/19/12 66/22/12
f 54/20/13 53/21/13 61/21/13 62/20/13
f 53/15/14 60/8/14 68/8/14 61/15/14
f 55/23/15 58/22/15 66/22/15 63/23/15
f 60/8/16 59/39/16 67/39/16 68/8/16
f 71/19/4 69/18/4 70/23/4 72/22/4
f 68/8/3 67/39/3 72/39/3 71/8/3
f 64/2/1 63/79/1 70/79/1 69/2/1
f 67/39/17 62/38/17 70/38/17 72/39/17
f 65/19/18 64/18/18 69/18/18 71/19/18
f 66/22/3 65/19/3 71/19/3 72/22/3
f 62/20/1 61/21/1 69/21/1 70/20/1